<svg width="193" height="53" viewBox="0 0 193 53" fill="none" xmlns="http://www.w3.org/2000/svg">
<rect x="0.5" y="0.5" width="192" height="52" rx="11.5" fill="url(#paint0_linear_57_14)"/>
<rect x="0.5" y="0.5" width="192" height="52" rx="11.5" stroke="url(#paint1_linear_57_14)"/>
<path d="M27.2803 26.304C27.2803 26.784 27.339 27.248 27.4563 27.696C27.5843 28.144 27.771 28.5387 28.0163 28.88C28.2723 29.2213 28.5923 29.4987 28.9763 29.712C29.371 29.9147 29.8403 30.016 30.3843 30.016C31.067 30.016 31.627 29.8667 32.0643 29.568C32.5123 29.2587 32.7896 28.832 32.8963 28.288H35.1363C35.083 28.9173 34.9176 29.472 34.6403 29.952C34.363 30.4213 34.0056 30.816 33.5683 31.136C33.131 31.456 32.635 31.696 32.0803 31.856C31.5256 32.016 30.9496 32.096 30.3523 32.096C29.467 32.096 28.683 31.952 28.0003 31.664C27.3283 31.376 26.7576 30.976 26.2883 30.464C25.8296 29.952 25.483 29.344 25.2483 28.64C25.0136 27.936 24.8963 27.1627 24.8963 26.32C24.8963 25.4987 25.0136 24.736 25.2483 24.032C25.4936 23.3173 25.851 22.704 26.3203 22.192C26.7896 21.6693 27.3603 21.264 28.0323 20.976C28.715 20.6773 29.499 20.528 30.3843 20.528C31.003 20.528 31.5843 20.6027 32.1283 20.752C32.6723 20.9013 33.1576 21.1307 33.5843 21.44C34.011 21.7493 34.3576 22.1493 34.6243 22.64C34.9016 23.12 35.0723 23.696 35.1363 24.368H32.8963C32.779 23.824 32.5016 23.392 32.0643 23.072C31.627 22.752 31.067 22.592 30.3843 22.592C29.8403 22.592 29.371 22.6933 28.9763 22.896C28.5923 23.088 28.2723 23.3547 28.0163 23.696C27.771 24.0373 27.5843 24.4373 27.4563 24.896C27.339 25.344 27.2803 25.8133 27.2803 26.304ZM40.4332 32.128C39.0679 32.128 38.0172 31.744 37.2812 30.976C36.5452 30.1973 36.1772 29.12 36.1772 27.744C36.1772 27.0827 36.2732 26.4853 36.4652 25.952C36.6679 25.408 36.9452 24.944 37.2972 24.56C37.6599 24.176 38.1025 23.888 38.6252 23.696C39.1585 23.4933 39.7612 23.392 40.4332 23.392C41.0945 23.392 41.6865 23.4933 42.2092 23.696C42.7425 23.888 43.1905 24.176 43.5532 24.56C43.9265 24.944 44.2092 25.408 44.4012 25.952C44.6039 26.4853 44.7052 27.0827 44.7052 27.744C44.7052 29.1307 44.3319 30.208 43.5852 30.976C42.8492 31.744 41.7985 32.128 40.4332 32.128ZM40.4332 25.408C39.7399 25.408 39.2279 25.632 38.8972 26.08C38.5665 26.528 38.4012 27.088 38.4012 27.76C38.4012 28.4427 38.5665 29.008 38.8972 29.456C39.2279 29.904 39.7399 30.128 40.4332 30.128C41.1265 30.128 41.6332 29.904 41.9532 29.456C42.2732 29.008 42.4332 28.4427 42.4332 27.76C42.4332 27.088 42.2732 26.528 41.9532 26.08C41.6332 25.632 41.1265 25.408 40.4332 25.408ZM48.4258 24.64C49.1085 23.8187 49.9511 23.4027 50.9538 23.392C51.4978 23.3813 51.9778 23.472 52.3938 23.664C52.8098 23.8453 53.1458 24.096 53.4018 24.416C53.7111 24.7893 53.9245 25.2267 54.0418 25.728C54.1591 26.2187 54.2178 26.768 54.2178 27.376V32H51.9458V27.552C51.9458 27.2533 51.9138 26.9707 51.8498 26.704C51.7965 26.4267 51.7005 26.192 51.5618 26C51.4231 25.7973 51.2365 25.648 51.0018 25.552C50.7778 25.456 50.5218 25.408 50.2338 25.408C49.8711 25.4187 49.5618 25.4987 49.3058 25.648C49.0605 25.7973 48.8738 25.9893 48.7458 26.224C48.6178 26.448 48.5271 26.704 48.4738 26.992C48.4311 27.2693 48.4098 27.552 48.4098 27.84V32H46.1538V23.568H48.3138L48.4258 24.64ZM60.9747 23.568V25.536H58.9107V32H56.6547V25.536H55.3747V23.568H56.6547V22.48C56.6547 21.5307 56.9 20.832 57.3907 20.384C57.892 19.936 58.6387 19.712 59.6307 19.712H60.9747V21.68H59.9507C59.2574 21.68 58.9107 22.032 58.9107 22.736V23.568H60.9747ZM63.3393 19.648C63.7553 19.648 64.0913 19.7707 64.3473 20.016C64.6033 20.2613 64.7313 20.5867 64.7313 20.992C64.7313 21.4187 64.6033 21.7547 64.3473 22C64.0913 22.2347 63.7553 22.352 63.3393 22.352C62.934 22.352 62.598 22.2347 62.3313 22C62.0753 21.7547 61.9473 21.4187 61.9473 20.992C61.9473 20.5867 62.0753 20.2613 62.3313 20.016C62.598 19.7707 62.934 19.648 63.3393 19.648ZM64.4753 32H62.2193V23.568H64.4753V32ZM68.5962 24.624C68.9375 24.2187 69.3002 23.9147 69.6842 23.712C70.0789 23.5093 70.5482 23.408 71.0922 23.408C71.2309 23.408 71.3642 23.4133 71.4922 23.424C71.6202 23.4347 71.7375 23.4507 71.8442 23.472V25.552C71.5989 25.552 71.3482 25.5573 71.0922 25.568C70.8469 25.568 70.6122 25.5893 70.3882 25.632C70.1642 25.6747 69.9455 25.744 69.7322 25.84C69.5295 25.9253 69.3482 26.0533 69.1882 26.224C68.9429 26.5013 68.7882 26.8 68.7242 27.12C68.6709 27.44 68.6442 27.8027 68.6442 28.208V32H66.3882V23.568H68.4682L68.5962 24.624ZM75.2539 24.656C75.5739 24.2507 75.9153 23.9413 76.2779 23.728C76.6513 23.5147 77.0726 23.4027 77.5419 23.392C78.1499 23.3813 78.6406 23.4987 79.0139 23.744C79.3873 23.9893 79.6806 24.3253 79.8939 24.752C80.2673 24.2933 80.6673 23.952 81.0939 23.728C81.5206 23.504 82.0059 23.392 82.5499 23.392C82.9766 23.392 83.3393 23.4507 83.6379 23.568C83.9366 23.6853 84.1979 23.8453 84.4219 24.048C84.7313 24.336 84.9499 24.704 85.0779 25.152C85.2166 25.5893 85.2859 26.0853 85.2859 26.64V32H83.0299V27.248C83.0299 27.024 83.0139 26.7947 82.9819 26.56C82.9499 26.3253 82.8806 26.1227 82.7739 25.952C82.6779 25.7707 82.5339 25.632 82.3419 25.536C82.1499 25.4293 81.9046 25.3867 81.6059 25.408C81.3393 25.4293 81.1046 25.5147 80.9019 25.664C80.6993 25.8027 80.5553 25.984 80.4699 26.208C80.3846 26.432 80.3259 26.672 80.2939 26.928C80.2726 27.184 80.2619 27.4347 80.2619 27.68V32H78.0059V27.248C78.0059 27.024 77.9899 26.7947 77.9579 26.56C77.9259 26.3253 77.8566 26.1227 77.7499 25.952C77.6433 25.7707 77.4993 25.632 77.3179 25.536C77.1366 25.4293 76.8966 25.3867 76.5979 25.408C76.2886 25.4293 76.0433 25.5147 75.8619 25.664C75.6806 25.8027 75.5419 25.984 75.4459 26.208C75.3606 26.4213 75.3019 26.6613 75.2699 26.928C75.2486 27.184 75.2379 27.4347 75.2379 27.68V32H72.9819V23.568H75.1419L75.2539 24.656ZM90.8696 22.432C89.9949 22.432 89.2696 22.2187 88.6936 21.792C88.1176 21.3653 87.7816 20.7093 87.6856 19.824H89.6536C89.7282 20.144 89.8722 20.3893 90.0856 20.56C90.2989 20.72 90.5602 20.8 90.8696 20.8C91.1789 20.8 91.4349 20.72 91.6376 20.56C91.8509 20.3893 91.9896 20.144 92.0536 19.824H94.0376C93.9309 20.7093 93.5896 21.3653 93.0136 21.792C92.4482 22.2187 91.7336 22.432 90.8696 22.432ZM92.2936 30.96C91.9736 31.3867 91.5789 31.6907 91.1096 31.872C90.6402 32.0533 90.1122 32.1387 89.5256 32.128C88.7469 32.1067 88.0962 31.888 87.5736 31.472C87.2962 31.2373 87.0776 30.96 86.9176 30.64C86.7682 30.3093 86.6936 29.92 86.6936 29.472C86.7042 29.0133 86.8056 28.608 86.9976 28.256C87.2002 27.8933 87.5042 27.5947 87.9096 27.36C88.2509 27.1787 88.6349 27.0507 89.0616 26.976C89.4989 26.9013 89.9736 26.864 90.4856 26.864H92.2136C92.2456 26.3413 92.1229 25.952 91.8456 25.696C91.5789 25.4293 91.2002 25.2907 90.7096 25.28C90.5496 25.28 90.3842 25.2907 90.2136 25.312C90.0429 25.3333 89.8829 25.376 89.7336 25.44C89.5949 25.504 89.4722 25.5947 89.3656 25.712C89.2696 25.8187 89.2056 25.952 89.1736 26.112H86.8536C86.9069 25.6 87.0456 25.1733 87.2696 24.832C87.5042 24.48 87.7976 24.1973 88.1496 23.984C88.5016 23.7707 88.8909 23.6213 89.3176 23.536C89.7549 23.44 90.2029 23.392 90.6616 23.392C90.9176 23.392 91.1789 23.408 91.4456 23.44C91.7122 23.4613 91.9736 23.5147 92.2296 23.6C92.4856 23.6747 92.7256 23.7813 92.9496 23.92C93.1842 24.048 93.4029 24.2187 93.6056 24.432C93.9682 24.848 94.1922 25.328 94.2776 25.872C94.3736 26.4053 94.4162 26.928 94.4056 27.44V32H92.3416L92.2936 30.96ZM92.2136 28.272H90.5656C90.4056 28.272 90.2242 28.288 90.0216 28.32C89.8189 28.352 89.6429 28.4107 89.4936 28.496C89.3442 28.5813 89.2162 28.6933 89.1096 28.832C89.0136 28.9707 88.9656 29.1413 88.9656 29.344C88.9656 29.5147 88.9976 29.664 89.0616 29.792C89.1362 29.92 89.2269 30.0267 89.3336 30.112C89.4509 30.1973 89.5896 30.2667 89.7496 30.32C89.9096 30.3627 90.0696 30.384 90.2296 30.384C90.5389 30.3947 90.8269 30.3413 91.0936 30.224C91.3709 30.1067 91.6109 29.9413 91.8136 29.728C91.9416 29.5573 92.0376 29.3653 92.1016 29.152C92.1762 28.928 92.2136 28.6347 92.2136 28.272ZM102.754 24.704C103.085 24.2987 103.495 23.984 103.986 23.76C104.487 23.5253 104.989 23.4027 105.49 23.392C106.087 23.3813 106.642 23.488 107.154 23.712C107.666 23.9253 108.093 24.288 108.434 24.8C108.711 25.1733 108.914 25.6107 109.042 26.112C109.17 26.6133 109.234 27.1413 109.234 27.696C109.234 28.3893 109.149 29.0187 108.978 29.584C108.818 30.1387 108.541 30.6187 108.146 31.024C107.815 31.3867 107.41 31.664 106.93 31.856C106.45 32.0373 105.97 32.128 105.49 32.128C105.255 32.128 105.021 32.112 104.786 32.08C104.551 32.0587 104.317 32.0107 104.082 31.936C103.847 31.8613 103.613 31.7547 103.378 31.616C103.154 31.4773 102.941 31.2907 102.738 31.056V35.52H100.482V23.568H102.626L102.754 24.704ZM104.866 25.408C104.535 25.408 104.237 25.472 103.97 25.6C103.714 25.7173 103.495 25.8827 103.314 26.096C103.133 26.3093 102.989 26.5547 102.882 26.832C102.786 27.1093 102.738 27.408 102.738 27.728C102.727 28.4427 102.914 29.0187 103.298 29.456C103.693 29.8827 104.226 30.1067 104.898 30.128C105.261 30.128 105.57 30.0693 105.826 29.952C106.082 29.8347 106.29 29.6693 106.45 29.456C106.621 29.2427 106.749 28.992 106.834 28.704C106.93 28.416 106.978 28.1013 106.978 27.76C106.978 27.4293 106.93 27.12 106.834 26.832C106.749 26.544 106.615 26.2933 106.434 26.08C106.263 25.8667 106.05 25.7013 105.794 25.584C105.538 25.4667 105.229 25.408 104.866 25.408ZM112.893 24.624C113.234 24.2187 113.597 23.9147 113.981 23.712C114.376 23.5093 114.845 23.408 115.389 23.408C115.528 23.408 115.661 23.4133 115.789 23.424C115.917 23.4347 116.034 23.4507 116.141 23.472V25.552C115.896 25.552 115.645 25.5573 115.389 25.568C115.144 25.568 114.909 25.5893 114.685 25.632C114.461 25.6747 114.242 25.744 114.029 25.84C113.826 25.9253 113.645 26.0533 113.485 26.224C113.24 26.5013 113.085 26.8 113.021 27.12C112.968 27.44 112.941 27.8027 112.941 28.208V32H110.685V23.568H112.765L112.893 24.624ZM120.963 30.288C121.283 30.288 121.555 30.24 121.779 30.144C122.013 30.0373 122.205 29.8667 122.355 29.632H124.723C124.605 30.0693 124.424 30.448 124.179 30.768C123.944 31.088 123.656 31.3493 123.315 31.552C122.984 31.7547 122.616 31.904 122.211 32C121.805 32.0853 121.379 32.128 120.931 32.128C119.565 32.128 118.531 31.744 117.827 30.976C117.133 30.208 116.787 29.1307 116.787 27.744C116.787 27.1147 116.877 26.5333 117.059 26C117.251 25.4667 117.517 25.008 117.859 24.624C118.2 24.2293 118.621 23.9253 119.123 23.712C119.635 23.4987 120.216 23.392 120.867 23.392C121.624 23.392 122.28 23.5253 122.835 23.792C123.389 24.0587 123.827 24.4267 124.147 24.896C124.477 25.3547 124.696 25.8933 124.803 26.512C124.92 27.1307 124.92 27.792 124.803 28.496H119.043C119.085 28.9973 119.261 29.424 119.571 29.776C119.88 30.1173 120.344 30.288 120.963 30.288ZM122.707 26.944C122.707 26.6773 122.659 26.4427 122.563 26.24C122.467 26.0267 122.339 25.856 122.179 25.728C122.019 25.5893 121.827 25.488 121.603 25.424C121.389 25.36 121.165 25.328 120.931 25.328C120.365 25.3387 119.923 25.4933 119.603 25.792C119.293 26.08 119.112 26.464 119.059 26.944H122.707ZM133.061 25.2L128.965 30.032H133.061V32H126.021V30.352L130.085 25.52H126.021V23.568H133.061V25.2ZM138.353 30.288C138.673 30.288 138.945 30.24 139.169 30.144C139.404 30.0373 139.596 29.8667 139.745 29.632H142.113C141.996 30.0693 141.815 30.448 141.569 30.768C141.335 31.088 141.047 31.3493 140.705 31.552C140.375 31.7547 140.007 31.904 139.601 32C139.196 32.0853 138.769 32.128 138.321 32.128C136.956 32.128 135.921 31.744 135.217 30.976C134.524 30.208 134.177 29.1307 134.177 27.744C134.177 27.1147 134.268 26.5333 134.449 26C134.641 25.4667 134.908 25.008 135.249 24.624C135.591 24.2293 136.012 23.9253 136.513 23.712C137.025 23.4987 137.607 23.392 138.257 23.392C139.015 23.392 139.671 23.5253 140.225 23.792C140.78 24.0587 141.217 24.4267 141.537 24.896C141.868 25.3547 142.087 25.8933 142.193 26.512C142.311 27.1307 142.311 27.792 142.193 28.496H136.433C136.476 28.9973 136.652 29.424 136.961 29.776C137.271 30.1173 137.735 30.288 138.353 30.288ZM140.097 26.944C140.097 26.6773 140.049 26.4427 139.953 26.24C139.857 26.0267 139.729 25.856 139.569 25.728C139.409 25.5893 139.217 25.488 138.993 25.424C138.78 25.36 138.556 25.328 138.321 25.328C137.756 25.3387 137.313 25.4933 136.993 25.792C136.684 26.08 136.503 26.464 136.449 26.944H140.097ZM146.02 24.64C146.702 23.8187 147.545 23.4027 148.548 23.392C149.092 23.3813 149.572 23.472 149.988 23.664C150.404 23.8453 150.74 24.096 150.996 24.416C151.305 24.7893 151.518 25.2267 151.636 25.728C151.753 26.2187 151.812 26.768 151.812 27.376V32H149.54V27.552C149.54 27.2533 149.508 26.9707 149.444 26.704C149.39 26.4267 149.294 26.192 149.156 26C149.017 25.7973 148.83 25.648 148.596 25.552C148.372 25.456 148.116 25.408 147.828 25.408C147.465 25.4187 147.156 25.4987 146.9 25.648C146.654 25.7973 146.468 25.9893 146.34 26.224C146.212 26.448 146.121 26.704 146.068 26.992C146.025 27.2693 146.004 27.552 146.004 27.84V32H143.748V23.568H145.908L146.02 24.64ZM157.688 30.112C157.859 30.112 158.051 30.08 158.264 30.016C158.478 29.952 158.664 29.872 158.824 29.776L159.464 31.488C159.315 31.584 159.144 31.6747 158.952 31.76C158.771 31.8347 158.568 31.904 158.344 31.968C158.131 32.0213 157.928 32.0587 157.736 32.08C157.544 32.1013 157.368 32.112 157.208 32.112C156.696 32.112 156.243 32.0427 155.848 31.904C155.464 31.7653 155.144 31.5573 154.888 31.28C154.654 31.0453 154.478 30.7413 154.36 30.368C154.254 29.9947 154.2 29.5733 154.2 29.104V25.536H152.92V23.568H154.2V21.264H156.456V23.568H158.936V25.536H156.456V28.576C156.456 28.768 156.467 28.9547 156.488 29.136C156.52 29.3067 156.579 29.4667 156.664 29.616C156.76 29.7653 156.888 29.888 157.048 29.984C157.219 30.0693 157.432 30.112 157.688 30.112ZM156.248 34.976C155.971 34.9547 155.747 34.8587 155.576 34.688C155.416 34.5173 155.336 34.288 155.336 34C155.336 33.6907 155.432 33.4453 155.624 33.264C155.827 33.0933 156.083 33.008 156.392 33.008C156.595 33.008 156.766 33.0453 156.904 33.12C157.043 33.1947 157.16 33.296 157.256 33.424C157.352 33.552 157.416 33.696 157.448 33.856C157.491 34.016 157.512 34.1813 157.512 34.352C157.512 34.6187 157.464 34.88 157.368 35.136C157.283 35.4027 157.155 35.6533 156.984 35.888C156.824 36.1227 156.632 36.3253 156.408 36.496C156.184 36.6667 155.95 36.7947 155.704 36.88L155.304 36.304C155.528 36.144 155.726 35.952 155.896 35.728C156.067 35.504 156.184 35.2533 156.248 34.976ZM165.7 30.96C165.38 31.3867 164.99 31.6907 164.532 31.872C164.073 32.0533 163.54 32.1387 162.932 32.128C162.153 32.1067 161.502 31.888 160.98 31.472C160.702 31.2373 160.484 30.96 160.324 30.64C160.174 30.3093 160.1 29.92 160.1 29.472C160.11 29.0133 160.212 28.608 160.404 28.256C160.606 27.8933 160.91 27.5947 161.316 27.36C161.657 27.1787 162.041 27.0507 162.468 26.976C162.905 26.9013 163.38 26.864 163.892 26.864H165.62C165.652 26.3413 165.529 25.952 165.252 25.696C164.985 25.4293 164.606 25.2907 164.116 25.28C163.956 25.28 163.79 25.2907 163.62 25.312C163.449 25.3333 163.289 25.376 163.14 25.44C163.001 25.504 162.878 25.5947 162.772 25.712C162.676 25.8187 162.612 25.952 162.58 26.112H160.26C160.313 25.6 160.452 25.1733 160.676 24.832C160.91 24.48 161.204 24.1973 161.556 23.984C161.908 23.7707 162.297 23.6213 162.724 23.536C163.161 23.44 163.609 23.392 164.068 23.392C164.324 23.392 164.585 23.408 164.852 23.44C165.118 23.4613 165.38 23.5147 165.636 23.6C165.892 23.6747 166.132 23.7813 166.356 23.92C166.59 24.048 166.809 24.2187 167.012 24.432C167.374 24.848 167.598 25.328 167.684 25.872C167.78 26.4053 167.822 26.928 167.812 27.44V32H165.748L165.7 30.96ZM165.62 28.272H163.972C163.812 28.272 163.63 28.288 163.428 28.32C163.225 28.352 163.049 28.4107 162.9 28.496C162.75 28.5813 162.622 28.6933 162.516 28.832C162.42 28.9707 162.372 29.1413 162.372 29.344C162.372 29.5147 162.404 29.664 162.468 29.792C162.542 29.92 162.633 30.0267 162.74 30.112C162.857 30.1973 162.996 30.2667 163.156 30.32C163.316 30.3627 163.476 30.384 163.636 30.384C163.945 30.3947 164.233 30.3413 164.5 30.224C164.777 30.1067 165.017 29.9413 165.22 29.728C165.348 29.5573 165.444 29.3653 165.508 29.152C165.582 28.928 165.62 28.6347 165.62 28.272Z" fill="#75705B"/>
<defs>
<linearGradient id="paint0_linear_57_14" x1="0.557804" y1="-1.30804e-06" x2="189.591" y2="64.6069" gradientUnits="userSpaceOnUse">
<stop stop-color="#EEE8CE"/>
<stop offset="1" stop-color="#E0D4A9"/>
</linearGradient>
<linearGradient id="paint1_linear_57_14" x1="0.557804" y1="-1.30804e-06" x2="189.591" y2="64.6069" gradientUnits="userSpaceOnUse">
<stop stop-color="#A59F81"/>
<stop offset="1" stop-color="#7E7963"/>
</linearGradient>
</defs>
</svg>
