<svg width="104" height="104" viewBox="0 0 104 104" fill="none" xmlns="http://www.w3.org/2000/svg">
<rect width="104" height="104" rx="16" fill="url(#paint0_linear_70_2)"/>
<path fill-rule="evenodd" clip-rule="evenodd" d="M42.3265 42.7692V43.058H44.3464C47.8049 43.058 50.4977 43.638 50.4977 49.2131V57.1935C49.2486 57.5776 47.8049 57.7697 46.1717 57.7697H42.1344C39.0562 57.7697 36.5555 56.1365 36.3635 51.4263V43.3467C36.5555 42.0022 36.7476 40.7531 37.2309 39.7902C37.7117 38.3478 38.48 37.1954 39.2483 36.4246C40.112 35.5596 40.9807 34.8855 41.9411 34.5013C42.9027 34.1172 43.9585 34.0205 45.0193 34.0205C45.2113 34.0205 45.308 34.1159 45.4034 34.1159L44.8272 33.6351H42.9981C40.7887 33.6351 39.1529 32.6723 37.9992 31.1344C37.1355 29.8841 36.5555 28.1529 36.3635 26.2297V12.29H46.1717C51.5585 12.29 55.5958 14.5974 58.3815 18.1551C61.7471 22.5778 63.3829 28.8283 63.3829 35.0776C63.3829 37.6749 63.0942 40.2698 62.5192 42.7692H42.3252H42.3265ZM50.5944 57.7684C50.6898 58.5405 50.8831 59.2121 51.2698 59.885C51.6539 61.0374 52.4235 62.0016 53.2872 62.8665C54.1521 63.7315 55.1163 64.4998 56.3653 65.0785C57.037 65.4626 57.7099 65.7514 58.3827 65.9435C58.9627 66.1355 59.5389 66.2322 60.1152 66.3276C60.0185 66.3276 57.4224 67.1925 56.3653 67.8642C55.2117 68.6362 54.1521 69.5012 53.2872 70.557C51.4619 72.6735 50.4977 75.4592 50.4977 79.1136V84.4037C50.4977 89.8822 47.8049 91.7113 44.3464 91.7113H42.3265V92H64.5378V91.7113H62.4238C59.0581 91.7113 56.3653 89.8834 56.3653 84.4037V76.4233C56.4608 74.883 56.7495 73.5385 57.1336 72.4814C57.8065 70.9411 58.4781 69.7887 59.4423 68.827C60.2106 67.9596 61.1722 67.19 62.135 66.9026H62.2317C63.1921 66.5184 64.3458 66.3263 65.4015 66.3263C68.7672 66.5184 72.2295 67.3834 72.2295 74.4988H72.5183V57.7672H72.2295C72.2295 64.4985 69.1513 65.6547 65.9815 65.8468H63.2887C60.9788 65.8468 59.2502 64.8827 58.094 63.154C57.037 61.8095 56.4608 59.9804 56.3653 57.7684V56.2306C62.3284 53.8266 66.6544 49.1152 68.7672 43.1521C79.2483 44.2129 79.6325 51.5192 79.7279 55.8465H80.0166L79.9199 42.768H68.8626C69.6347 40.3652 70.1155 37.7691 70.1155 35.0763C70.1155 26.2297 65.6928 18.538 58.2861 14.6928C55.0196 12.9616 51.1706 12 46.8446 12H23V12.29H24.922C28.191 12.29 30.7883 12.8662 30.7883 18.0584V24.6918C30.7883 25.8468 30.9804 27.0005 31.4612 28.0575C31.942 29.1158 32.6137 29.982 33.4824 30.8469C34.2507 31.6152 35.211 32.386 36.3647 32.8656C37.0401 33.2497 37.6163 33.4418 38.2892 33.6351C38.8654 33.8272 39.4416 33.9239 40.0191 34.0193C39.9225 34.0193 37.4255 34.8842 36.3647 35.4604C35.3077 36.1346 34.3473 36.9995 33.4824 37.9611C31.6533 39.9798 30.7896 42.5759 30.7896 45.9416V50.9442C30.7896 56.0385 28.1922 57.7684 24.9232 57.7684H23V58.0597H46.8446C48.1929 58.0597 49.442 57.963 50.5944 57.7684ZM56.3653 54.0186V43.058H62.4238C61.3643 47.3878 59.3469 51.3296 56.3653 54.0186Z" fill="#2E2914"/>
<defs>
<linearGradient id="paint0_linear_70_2" x1="52" y1="0" x2="52" y2="104" gradientUnits="userSpaceOnUse">
<stop stop-color="#F5F0CA"/>
<stop offset="1" stop-color="#D3C191"/>
</linearGradient>
</defs>
</svg>
