<svg width="104" height="104" viewBox="0 0 104 104" fill="none" xmlns="http://www.w3.org/2000/svg">
<rect width="104" height="104" rx="16" fill="white"/>
<path fill-rule="evenodd" clip-rule="evenodd" d="M41.4726 42.186V42.5068H43.7168C47.5594 42.5068 50.5512 43.1512 50.5512 49.3454V58.212C49.1634 58.6388 47.5594 58.8522 45.7448 58.8522H41.2592C37.8392 58.8522 35.0608 57.0376 34.8474 51.8044V42.8276C35.0608 41.3338 35.2742 39.946 35.8112 38.8762C36.3454 37.2736 37.199 35.9932 38.0526 35.1368C39.0122 34.1758 39.9774 33.4268 41.0444 33C42.1128 32.5732 43.2858 32.4658 44.4644 32.4658C44.6778 32.4658 44.7852 32.5718 44.8912 32.5718L44.251 32.0376H42.2188C39.764 32.0376 37.9466 30.9678 36.6648 29.2592C35.7052 27.87 35.0608 25.9466 34.8474 23.8098V8.32219H45.7448C51.7298 8.32219 56.2154 10.8858 59.3104 14.8386C63.0498 19.7524 64.8672 26.697 64.8672 33.6402C64.8672 36.526 64.5464 39.409 63.9076 42.186H41.4712H41.4726ZM50.6586 58.8508C50.7646 59.7086 50.9794 60.4548 51.409 61.2024C51.8358 62.4828 52.6908 63.554 53.6504 64.515C54.6114 65.476 55.6826 66.3296 57.0704 66.9726C57.8166 67.3994 58.5642 67.7202 59.3118 67.9336C59.9562 68.147 60.5964 68.2544 61.2366 68.3604C61.1292 68.3604 58.2448 69.3214 57.0704 70.0676C55.7886 70.9254 54.6114 71.8864 53.6504 73.0594C51.6224 75.411 50.5512 78.506 50.5512 82.5662V88.4438C50.5512 94.5306 47.5594 96.5628 43.7168 96.5628H41.4726V96.8836H66.1504V96.5628H63.8016C60.0622 96.5628 57.0704 94.532 57.0704 88.4438V79.5772C57.1764 77.8658 57.4972 76.372 57.924 75.1976C58.6716 73.4862 59.4178 72.2058 60.489 71.1374C61.3426 70.1736 62.411 69.3186 63.4808 68.9992H63.5882C64.6552 68.5724 65.937 68.359 67.11 68.359C70.8494 68.5724 74.6962 69.5334 74.6962 77.439H75.017V58.8494H74.6962C74.6962 66.3282 71.2762 67.6128 67.7544 67.8262H64.7626C62.1962 67.8262 60.2756 66.755 58.991 64.8344C57.8166 63.3406 57.1764 61.3084 57.0704 58.8508V57.1422C63.6956 54.4712 68.502 49.2366 70.8494 42.6114C82.4944 43.79 82.9212 51.9076 83.0272 56.7154H83.348L83.2406 42.1846H70.9554C71.8132 39.515 72.3474 36.6306 72.3474 33.6388C72.3474 23.8098 67.4336 15.264 59.2044 10.9918C55.5752 9.0684 51.2988 8 46.4924 8H20V8.32219H22.1354C25.7674 8.32219 28.6532 8.9624 28.6532 14.7312V22.1012C28.6532 23.3844 28.8666 24.6662 29.4008 25.8406C29.935 27.0164 30.6812 27.9788 31.6464 28.9398C32.5 29.7934 33.567 30.6498 34.8488 31.1826C35.5992 31.6094 36.2394 31.8228 36.987 32.0376C37.6272 32.251 38.2674 32.3584 38.909 32.4644C38.8016 32.4644 36.0274 33.4254 34.8488 34.0656C33.6744 34.8146 32.6074 35.7756 31.6464 36.844C29.6142 39.0868 28.6546 41.9712 28.6546 45.7106V51.2688C28.6546 56.9288 25.7688 58.8508 22.1368 58.8508H20V59.1744H46.4924C47.9904 59.1744 49.3782 59.067 50.6586 58.8508ZM57.0704 54.6846V42.5068H63.8016C62.6244 47.3174 60.383 51.697 57.0704 54.6846Z" fill="#D7A001"/>
</svg>

